HIERARCHY
ROOT SpineBase
{
  OFFSET 0.000000 0.000000 0.000000
  CHANNELS 6 Xposition Yposition Zposition Zrotation Xrotation Yrotation
  JOINT SpineMid
  {
    OFFSET 0.000000 29.393043 0.000000
    CHANNELS 3 Zrotation Xrotation Yrotation
    JOINT SpineShoulder
    {
      OFFSET -0.079038 21.853501 -0.628987
      CHANNELS 3 Zrotation Xrotation Yrotation
      JOINT Neck
      {
        OFFSET -0.096614 7.265344 -0.493866
        CHANNELS 3 Zrotation Xrotation Yrotation
        JOINT Head
        {
          OFFSET -8.955186 8.280208 0.073247
          CHANNELS 3 Zrotation Xrotation Yrotation
          End Site
          {
            OFFSET 0 0 0
          }
        }
      }
      JOINT ShoulderLeft
      {
        OFFSET -9.893175 -7.590330 14.178515
        CHANNELS 3 Zrotation Xrotation Yrotation
        JOINT ElbowLeft
        {
          OFFSET -5.917014 -19.880577 -0.648085
          CHANNELS 3 Zrotation Xrotation Yrotation
          JOINT WristLeft
          {
            OFFSET -5.528227 -14.948852 -10.965658
            CHANNELS 3 Zrotation Xrotation Yrotation
            JOINT HandLeft
            {
              OFFSET -1.336600 -3.491097 -0.968737
              CHANNELS 3 Zrotation Xrotation Yrotation
              JOINT HandTipLeft
              {
                OFFSET 0.031608 -4.125990 -2.348114
                CHANNELS 3 Zrotation Xrotation Yrotation
                End Site
                {
                  OFFSET 0 0 0
                }
              }
              JOINT ThumbLeft
              {
                OFFSET 4.312409 -0.092848 -0.130231
                CHANNELS 3 Zrotation Xrotation Yrotation
                End Site
                {
                  OFFSET 0 0 0
                }
              }
            }
          }
        }
      }
      JOINT ShoulderRight
      {
        OFFSET 7.670764 -2.638355 -12.944143
        CHANNELS 3 Zrotation Xrotation Yrotation
        JOINT ElbowRight
        {
          OFFSET 0.090611 -21.794559 -6.790570
          CHANNELS 3 Zrotation Xrotation Yrotation
          JOINT WristRight
          {
            OFFSET -5.675341 -22.220622 -6.920698
            CHANNELS 3 Zrotation Xrotation Yrotation
            JOINT HandRight
            {
              OFFSET -0.834058 -8.460750 -2.989314
              CHANNELS 3 Zrotation Xrotation Yrotation
              JOINT HandTipRight
              {
                OFFSET -1.940971 -5.118501 -2.697324
                CHANNELS 3 Zrotation Xrotation Yrotation
                End Site
                {
                  OFFSET 0 0 0
                }
              }
              JOINT ThumbRight
              {
                OFFSET 3.338240 -3.160171 -1.714799
                CHANNELS 3 Zrotation Xrotation Yrotation
                End Site
                {
                  OFFSET 0 0 0
                }
              }
            }
          }
        }
      }
    }
  }
  JOINT HipLeft
  {
    OFFSET -3.948328 0.403431 2.642625
    CHANNELS 3 Zrotation Xrotation Yrotation
    JOINT KneeLeft
    {
      OFFSET -4.619590 -21.390058 -0.485019
      CHANNELS 3 Zrotation Xrotation Yrotation
      JOINT AnkleLeft
      {
        OFFSET 11.185047 -35.371090 12.173724
        CHANNELS 3 Zrotation Xrotation Yrotation
        JOINT FootLeft
        {
          OFFSET -8.486760 -3.818333 -7.915447
          CHANNELS 3 Zrotation Xrotation Yrotation
          End Site
          {
            OFFSET 0 0 0
          }
        }
      }
    }
  }
  JOINT HipRight
  {
    OFFSET 3.197438 1.684306 -9.006908
    CHANNELS 3 Zrotation Xrotation Yrotation
    JOINT KneeRight
    {
      OFFSET -7.203665 -15.361435 -21.187111
      CHANNELS 3 Zrotation Xrotation Yrotation
      JOINT AnkleRight
      {
        OFFSET 12.317397 -31.307496 19.337236
        CHANNELS 3 Zrotation Xrotation Yrotation
        JOINT FootRight
        {
          OFFSET -8.568009 -3.817094 -7.904187
          CHANNELS 3 Zrotation Xrotation Yrotation
          End Site
          {
            OFFSET 0 0 0
          }
        }
      }
    }
  }
}
MOTION
Frames: 14
Frame Time: 0.033333
36.424661 68.537860 318.862008 -0.000000 0.000000 58.475253 -0.000000 -0.000000 -58.475253 -0.000000 0.000000 0.000000 -0.000000 0.000000 0.000000 0.000000 0.000000 0.000000 -0.000000 0.000000 0.000000 -0.000000 0.000000 0.000000 -0.000000 0.000000 0.000000 -0.000000 0.000000 0.000000 0.000000 0.000000 0.000000 0.000000 0.000000 0.000000 -0.000000 0.000000 0.000000 -0.000000 0.000000 0.000000 -0.000000 0.000000 0.000000 -0.000000 0.000000 0.000000 0.000000 0.000000 0.000000 0.000000 0.000000 0.000000 -0.000000 -0.000000 -58.475253 -0.000000 0.000000 0.000000 -0.000000 0.000000 0.000000 0.000000 0.000000 0.000000 -0.000000 -0.000000 -58.475253 -0.000000 0.000000 0.000000 -0.000000 0.000000 0.000000 0.000000 0.000000 0.000000
36.337757 68.717194 319.001383 -0.028810 -0.244145 58.698832 0.223578 0.102225 -58.699093 -0.000000 0.000000 0.000000 -0.000000 0.000000 0.000000 0.000000 0.000000 0.000000 2.343945 -1.275888 0.331576 0.911737 -4.738354 -0.368271 0.802502 6.855393 -1.575064 -4.115057 -6.187883 1.505734 0.000000 0.000000 0.000000 0.000000 0.000000 0.000000 -0.000000 0.000000 0.000000 -0.000000 0.000000 0.000000 -1.075390 -0.564740 0.430685 -2.195659 0.763315 1.235119 0.000000 0.000000 0.000000 0.000000 0.000000 0.000000 -0.466284 -0.303600 -58.527177 0.288217 1.654437 0.185376 -0.276920 -0.853276 -0.366537 0.000000 0.000000 0.000000 -0.434317 -2.213088 -60.182303 -2.385306 2.097589 1.245685 0.694679 -0.390697 0.276490 0.000000 0.000000 0.000000
36.259231 68.879901 319.119534 -0.048900 -0.463564 58.813060 0.421895 0.198213 -58.813987 -0.000000 0.000000 0.000000 -1.196983 0.487977 0.549629 0.000000 0.000000 0.000000 4.371577 -2.358379 0.657369 1.594050 -9.090697 -0.314023 1.604434 11.633072 -2.989795 -7.337321 -9.882439 2.240676 0.000000 0.000000 0.000000 0.000000 0.000000 0.000000 -0.000000 0.000000 0.000000 -0.000000 0.000000 0.000000 -1.912830 -1.040521 0.762281 -3.902704 1.124494 2.314572 0.000000 0.000000 0.000000 0.000000 0.000000 0.000000 -0.831862 -0.582326 -58.499560 0.496238 3.075758 0.341342 -0.516127 -1.595771 -0.687149 0.000000 0.000000 0.000000 -0.833441 -3.990242 -61.519556 -4.359755 3.781128 2.347441 1.244168 -0.731865 0.484516 0.000000 0.000000 0.000000
36.189085 69.025981 319.216461 -0.060210 -0.657920 58.815788 0.594038 0.289149 -58.817632 -0.020862 -0.859534 -0.012998 -1.958077 1.526188 0.807650 0.000000 0.000000 0.000000 6.165626 -2.431950 0.891736 2.098709 -13.083190 0.076765 2.268698 14.493268 -3.933053 -9.837149 -11.388537 2.321072 0.000000 0.000000 0.000000 0.000000 0.000000 0.000000 0.020669 0.859539 0.012687 -0.000000 0.000000 0.000000 -2.537556 -1.435301 1.008648 -5.064724 1.125864 3.170276 0.000000 0.000000 0.000000 0.000000 0.000000 0.000000 -1.094003 -0.837392 -58.389599 0.622766 4.262156 0.473356 -0.715740 -2.227981 -0.960327 0.000000 0.000000 0.000000 -1.146750 -5.309618 -62.451834 -5.870226 5.063647 3.237652 1.647337 -1.025181 0.621983 0.000000 0.000000 0.000000
36.127318 69.155435 319.292163 -0.062697 -0.826929 58.704554 0.016135 -0.137861 -58.707302 -0.087754 -0.191005 -0.013936 -2.856391 1.880764 1.014061 0.000000 0.000000 0.000000 7.743175 -3.027610 1.141701 2.470864 -16.774299 0.749845 2.666889 15.651023 -4.179942 -11.664785 -10.973023 1.791318 0.000000 0.000000 0.000000 0.000000 0.000000 0.000000 0.949999 0.974811 -0.289820 -0.926366 0.096393 0.289749 -2.966170 -1.755210 1.179153 -5.665972 0.809694 3.769651 0.000000 0.000000 0.000000 0.000000 0.000000 0.000000 -1.250552 -1.069193 -58.194207 0.666592 5.212455 0.585858 -0.874178 -2.750522 -1.184824 0.000000 0.000000 0.000000 -1.336387 -6.159648 -62.950961 -6.875444 5.961894 3.865173 1.903405 -1.271895 0.687248 0.000000 0.000000 0.000000
36.073931 69.268261 319.346642 -0.056336 -0.970359 58.476553 0.009375 -0.157462 -58.479627 -0.108685 -0.212259 -0.016124 -3.876273 2.161285 1.191604 0.000000 0.000000 0.000000 9.159508 -3.562328 1.374054 2.748372 -20.233152 1.676912 2.720383 15.361210 -3.617468 -12.787771 -8.919392 0.641648 0.000000 0.000000 0.000000 0.000000 0.000000 0.000000 1.128107 1.044337 -0.348506 -1.103630 0.206104 0.346531 -3.207695 -2.004569 1.279445 -5.719421 0.211622 4.107941 0.000000 0.000000 0.000000 0.000000 0.000000 0.000000 -1.299870 -1.277218 -57.909989 0.626756 5.925906 0.682202 -0.990156 -3.164028 -1.359650 0.000000 0.000000 0.000000 -1.379289 -6.533837 -62.996716 -7.346577 6.489710 4.195570 2.011839 -1.472757 0.679058 0.000000 0.000000 0.000000
36.016507 69.354562 319.402872 -0.047081 -1.097919 58.158615 -0.007931 -0.170213 -58.162096 -0.131152 -0.222676 -0.018472 -4.906068 2.467944 1.436665 0.000000 0.000000 0.000000 10.780937 -4.236845 1.668881 2.686169 -24.036720 3.218898 2.583046 16.529601 -3.789172 -13.123343 -7.495237 -0.520093 0.000000 0.000000 0.000000 0.000000 0.000000 0.000000 1.490773 1.063518 -0.465179 -1.455880 0.342153 0.459000 -3.491560 -2.329795 1.398462 -4.404002 -0.848515 3.900769 0.000000 0.000000 0.000000 0.000000 0.000000 0.000000 -1.451093 -1.630838 -57.509095 0.538097 6.659884 0.709418 -1.117367 -3.447909 -1.497853 0.000000 0.000000 0.000000 -0.937051 -6.539181 -63.095921 -7.803376 6.338588 4.583083 2.208712 -1.626673 0.743552 0.000000 0.000000 0.000000
36.062286 69.394963 319.418454 0.085304 -1.185799 57.952247 -0.062185 -0.145498 -57.951985 -0.179209 -0.216431 -0.018847 -6.264297 2.679113 1.645369 0.000000 0.000000 0.000000 12.102742 -4.826558 1.933384 2.757553 -26.663177 4.249740 0.869799 11.316175 0.705426 -11.396788 -1.049910 -4.796115 0.000000 0.000000 0.000000 0.000000 0.000000 0.000000 1.565872 1.033486 -0.503969 -2.213471 -0.409792 0.928060 -2.957333 -1.234297 1.042521 -3.313191 -4.912301 4.625652 0.000000 0.000000 0.000000 0.000000 0.000000 0.000000 -1.573924 -1.433646 -57.274273 0.665005 7.140542 0.808544 -1.146085 -3.837645 -1.633078 0.000000 0.000000 0.000000 -1.048887 -5.741121 -62.034549 -6.732775 6.476357 3.959379 1.850465 -1.812129 0.452016 0.000000 0.000000 0.000000
36.026380 69.478199 319.410803 0.097107 -1.257497 57.185750 -0.061998 -0.158666 -57.185130 -0.190003 -0.195567 -0.018969 -7.824527 2.576335 1.556461 0.000000 0.000000 0.000000 13.290093 -4.681666 1.883811 2.911362 -30.593165 6.548763 0.618818 6.996786 3.685452 -10.362913 6.476410 -8.611496 0.000000 0.000000 0.000000 0.000000 0.000000 0.000000 1.531303 0.882118 -0.495606 -2.563866 -0.691710 1.167051 -2.421929 -0.430808 0.745183 -0.937575 -5.972509 3.700229 0.000000 0.000000 0.000000 0.000000 0.000000 0.000000 -1.127634 -0.621644 -56.639556 0.940169 7.050118 1.123001 -3.103012 -3.484522 0.244461 0.000000 0.000000 0.000000 -1.675876 -4.573348 -59.202160 -4.070502 6.750384 2.354503 0.780979 -1.749800 -0.191849 0.000000 0.000000 0.000000
35.897514 69.565764 319.354718 -0.018843 -1.315862 55.834266 -0.003790 -0.211999 -55.837254 -0.174058 -0.175855 -0.019866 -9.484338 2.314812 1.310961 0.000000 0.000000 0.000000 13.620639 -5.385659 2.195857 3.783624 -33.503014 8.375188 0.042164 5.423456 5.412630 -9.821588 8.117594 -11.055976 0.000000 0.000000 0.000000 0.000000 0.000000 0.000000 1.278388 0.512142 -0.398910 -2.424685 -0.634177 1.220024 -1.681754 -0.831358 0.463499 -1.792321 -3.327843 3.353556 0.000000 0.000000 0.000000 0.000000 0.000000 0.000000 -1.322084 -1.581380 -55.158424 0.330007 7.538019 0.862951 -2.671098 -2.999253 -0.694744 0.000000 0.000000 0.000000 -1.440320 -2.499867 -55.753278 -1.100528 6.006478 0.817524 0.110321 -1.981512 -1.731180 0.000000 0.000000 0.000000
35.520157 69.771764 319.281663 -0.492962 -1.365616 54.626340 0.147907 -0.421917 -54.644524 -0.065365 -0.142761 -0.022522 -11.162023 1.989194 0.980656 0.000000 0.000000 0.000000 13.951019 -5.923759 2.442685 4.859751 -35.939555 9.883397 -0.086386 5.540196 5.883076 -9.029235 10.571030 -13.085323 0.000000 0.000000 0.000000 0.000000 0.000000 0.000000 0.788768 0.508595 -0.194873 -1.445992 -1.438248 1.119595 -0.659777 -2.626974 0.101874 -3.631282 3.332002 2.671645 0.000000 0.000000 0.000000 0.000000 0.000000 0.000000 -2.411727 -3.600429 -53.594140 -0.098637 8.612973 0.079258 2.126016 -2.816351 -8.603700 0.000000 0.000000 0.000000 0.582865 -0.862051 -54.746082 -0.497927 4.045610 1.206517 0.205525 -2.438138 -2.229683 0.000000 0.000000 0.000000
35.371663 69.901343 319.052134 -0.570141 -1.191882 52.806062 0.014090 -0.405604 -52.828570 -0.015941 -0.167481 -0.026603 -12.898807 1.565953 0.560325 0.000000 0.000000 0.000000 14.088557 -6.499796 2.694886 5.666966 -37.150917 10.589470 0.120021 6.971628 5.125993 -8.737588 9.822717 -14.035388 0.000000 0.000000 0.000000 0.000000 0.000000 0.000000 1.937462 -0.615340 -0.516342 -1.888057 -0.132149 1.234577 0.648928 -4.217750 -0.178656 -7.428048 9.484984 2.962950 0.000000 0.000000 0.000000 0.000000 0.000000 0.000000 0.326333 -6.012320 -51.969129 -2.985484 5.682254 -0.037272 7.587687 -6.310152 -10.024778 0.000000 0.000000 0.000000 1.863013 -1.680107 -55.119658 -3.037822 2.939576 2.651253 1.333789 -2.030674 -1.632665 0.000000 0.000000 0.000000
35.619269 69.944747 318.682280 -0.120959 -0.874315 50.212858 -0.246708 -0.200752 -50.222417 -0.120608 -0.265791 -0.027448 -14.687304 1.004775 0.003107 0.000000 0.000000 0.000000 14.342746 -7.844563 3.266508 6.345964 -37.907834 10.857487 -2.902227 14.571730 3.747567 -8.164109 2.209796 -12.135514 0.000000 0.000000 0.000000 0.000000 0.000000 0.000000 2.994419 -1.554111 -0.841139 -0.863762 1.462857 0.670931 1.414350 -7.171042 0.083671 -11.713673 17.544505 3.166075 0.000000 0.000000 0.000000 0.000000 0.000000 0.000000 5.485797 -7.860183 -49.750396 -8.289162 0.448168 -0.056875 9.184066 -4.614775 -11.500329 0.000000 0.000000 0.000000 4.273734 -1.336985 -55.916511 -6.166317 -1.818294 4.051474 1.859357 2.335393 -2.557243 0.000000 0.000000 0.000000
36.077138 69.950841 318.246285 0.573344 -0.507666 47.644806 -0.557571 0.002667 -47.636216 -0.314228 -0.396388 -0.025724 -16.403702 0.364779 -0.721393 0.000000 0.000000 0.000000 14.498040 -8.666145 3.606162 5.764731 -36.548129 9.712250 -5.298334 19.739247 3.076049 -7.097532 -4.082239 -10.353661 0.000000 0.000000 0.000000 0.000000 0.000000 0.000000 5.184814 -1.730128 -1.562705 0.363923 4.036493 -0.595053 1.668855 -10.028603 1.088163 -14.197739 27.677854 0.516798 0.000000 0.000000 0.000000 0.000000 0.000000 0.000000 10.196441 -9.014942 -47.426890 -13.295895 -3.756350 -0.176172 14.153776 -7.649421 -12.426395 0.000000 0.000000 0.000000 3.811579 -3.800960 -55.846041 -10.342086 -1.337043 5.354195 5.256936 0.162923 1.614412 0.000000 0.000000 0.000000
